<svg width="60" height="60" viewBox="0 0 60 60" fill="none" xmlns="http://www.w3.org/2000/svg">
<rect width="60" height="60" rx="8" fill="#060047"/>
<path d="M30 11.25C20.5417 11.25 11.9583 14.9583 5.60417 20.9792C5.22917 21.3542 5 21.875 5 22.4583C5 23.0417 5.22917 23.5625 5.60417 23.9375L10.7708 29.1042C11.1611 29.49 11.6866 29.7081 12.2353 29.712C12.7841 29.7159 13.3127 29.5053 13.7083 29.125C15.3542 27.5833 17.2292 26.2917 19.25 25.2708C19.9375 24.9375 20.4167 24.2292 20.4167 23.3958V16.9375C23.4375 15.9375 26.6458 15.4167 30 15.4167C33.3125 15.4167 36.5417 15.9375 39.5625 16.9167V23.375C39.5625 24.1875 40.0417 24.9167 40.7292 25.25C42.7708 26.2708 44.5833 27.5833 46.2917 29.1042C46.6667 29.4792 47.1875 29.6875 47.7083 29.6875C48.3333 29.6875 48.8542 29.4583 49.2292 29.0833L54.3958 23.9167C54.7708 23.5417 55 23.0208 55 22.4375C55 21.8542 54.75 21.3542 54.375 20.9792C47.7999 14.7278 39.0726 11.2444 30 11.25ZM23.75 19.5833V25.8333C23.75 25.8333 11.25 36.25 11.25 42.5V50.8333H48.75V42.5C48.75 36.25 36.25 25.8333 36.25 25.8333V19.5833H32.0833V23.75H27.9167V19.5833H23.75ZM30 30C32.2101 30 34.3298 30.878 35.8926 32.4408C37.4554 34.0036 38.3333 36.1232 38.3333 38.3333C38.3333 40.5435 37.4554 42.6631 35.8926 44.2259C34.3298 45.7887 32.2101 46.6667 30 46.6667C27.7899 46.6667 25.6702 45.7887 24.1074 44.2259C22.5446 42.6631 21.6667 40.5435 21.6667 38.3333C21.6667 36.1232 22.5446 34.0036 24.1074 32.4408C25.6702 30.878 27.7899 30 30 30ZM30 33.125C28.6187 33.125 27.2939 33.6737 26.3172 34.6505C25.3404 35.6272 24.7917 36.952 24.7917 38.3333C24.7917 39.7147 25.3404 41.0394 26.3172 42.0162C27.2939 42.9929 28.6187 43.5417 30 43.5417C31.3813 43.5417 32.7061 42.9929 33.6828 42.0162C34.6596 41.0394 35.2083 39.7147 35.2083 38.3333C35.2083 36.952 34.6596 35.6272 33.6828 34.6505C32.7061 33.6737 31.3813 33.125 30 33.125Z" fill="#16FF00"/>
</svg>
